<svg width="24" height="24" viewBox="0 0 24 24" xmlns="http://www.w3.org/2000/svg">
  <path d="M18.7001 19H5.30012L9.50012 12H14.5001L18.7001 19ZM18.7001 22H5.30012C4.76997 21.9992 4.24949 21.8579 3.79169 21.5905C3.3339 21.3232 2.95513 20.9392 2.69396 20.4779C2.43279 20.0165 2.29855 19.4942 2.3049 18.9641C2.31125 18.4339 2.45797 17.915 2.73012 17.46L8.00012 8.67V4C7.73491 4 7.48055 3.89464 7.29302 3.70711C7.10548 3.51957 7.00012 3.26522 7.00012 3C7.00012 2.73478 7.10548 2.48043 7.29302 2.29289C7.48055 2.10536 7.73491 2 8.00012 2H16.0001C16.2653 2 16.5197 2.10536 16.7072 2.29289C16.8948 2.48043 17.0001 2.73478 17.0001 3C17.0001 3.26522 16.8948 3.51957 16.7072 3.70711C16.5197 3.89464 16.2653 4 16.0001 4V8.67L21.2701 17.46C21.5423 17.915 21.689 18.4339 21.6953 18.9641C21.7017 19.4942 21.5674 20.0165 21.3063 20.4779C21.0451 20.9392 20.6663 21.3232 20.2085 21.5905C19.7508 21.8579 19.2303 21.9992 18.7001 22V22ZM19.5601 18.49L14.2901 9.7L14.0001 9.22V4H10.0001V9.22L9.71012 9.7L4.44012 18.49C4.3501 18.6418 4.30188 18.8148 4.30033 18.9913C4.29879 19.1678 4.34399 19.3415 4.43135 19.4949C4.5187 19.6483 4.64509 19.7758 4.79768 19.8645C4.95027 19.9532 5.12362 20 5.30012 20H18.7001C18.8766 20 19.05 19.9532 19.2026 19.8645C19.3552 19.7758 19.4815 19.6483 19.5689 19.4949C19.6562 19.3415 19.7015 19.1678 19.6999 18.9913C19.6984 18.8148 19.6501 18.6418 19.5601 18.49V18.49Z" fill="white"></path>
</svg>